HIERARCHY
ROOT SpineBase
{
  OFFSET 0.000000 0.000000 0.000000
  CHANNELS 6 Xposition Yposition Zposition Zrotation Xrotation Yrotation
  JOINT SpineMid
  {
    OFFSET 0.000000 32.318876 0.000000
    CHANNELS 3 Zrotation Xrotation Yrotation
    JOINT SpineShoulder
    {
      OFFSET -0.365537 24.040199 -0.895280
      CHANNELS 3 Zrotation Xrotation Yrotation
      JOINT Neck
      {
        OFFSET -0.206852 7.952197 -0.631488
        CHANNELS 3 Zrotation Xrotation Yrotation
        JOINT Head
        {
          OFFSET -5.430244 14.194303 -0.314920
          CHANNELS 3 Zrotation Xrotation Yrotation
          End Site
          {
            OFFSET 0 0 0
          }
        }
      }
      JOINT ShoulderLeft
      {
        OFFSET -14.052625 -2.410043 12.674421
        CHANNELS 3 Zrotation Xrotation Yrotation
        JOINT ElbowLeft
        {
          OFFSET -2.275895 -27.351764 6.139724
          CHANNELS 3 Zrotation Xrotation Yrotation
          JOINT WristLeft
          {
            OFFSET -1.750548 -26.194528 0.168407
            CHANNELS 3 Zrotation Xrotation Yrotation
            JOINT HandLeft
            {
              OFFSET 0.145306 -7.966097 0.429755
              CHANNELS 3 Zrotation Xrotation Yrotation
              JOINT HandTipLeft
              {
                OFFSET 1.630279 -6.899324 -0.121271
                CHANNELS 3 Zrotation Xrotation Yrotation
                End Site
                {
                  OFFSET 0 0 0
                }
              }
              JOINT ThumbLeft
              {
                OFFSET 2.581034 -0.699690 -1.980787
                CHANNELS 3 Zrotation Xrotation Yrotation
                End Site
                {
                  OFFSET 0 0 0
                }
              }
            }
          }
        }
      }
      JOINT ShoulderRight
      {
        OFFSET 12.836242 -2.428781 -12.567166
        CHANNELS 3 Zrotation Xrotation Yrotation
        JOINT ElbowRight
        {
          OFFSET 7.478437 -27.153909 -4.463650
          CHANNELS 3 Zrotation Xrotation Yrotation
          JOINT WristRight
          {
            OFFSET -0.796861 -23.730342 -2.170630
            CHANNELS 3 Zrotation Xrotation Yrotation
            JOINT HandRight
            {
              OFFSET -0.170963 -9.005700 0.491988
              CHANNELS 3 Zrotation Xrotation Yrotation
              JOINT HandTipRight
              {
                OFFSET 0.072579 -7.294421 -0.396554
                CHANNELS 3 Zrotation Xrotation Yrotation
                End Site
                {
                  OFFSET 0 0 0
                }
              }
              JOINT ThumbRight
              {
                OFFSET 2.662304 0.147074 -2.707238
                CHANNELS 3 Zrotation Xrotation Yrotation
                End Site
                {
                  OFFSET 0 0 0
                }
              }
            }
          }
        }
      }
    }
  }
  JOINT HipLeft
  {
    OFFSET -6.377650 0.582082 1.445446
    CHANNELS 3 Zrotation Xrotation Yrotation
    JOINT KneeLeft
    {
      OFFSET 3.840785 -40.928761 9.092387
      CHANNELS 3 Zrotation Xrotation Yrotation
      JOINT AnkleLeft
      {
        OFFSET 13.639688 -36.385987 7.298736
        CHANNELS 3 Zrotation Xrotation Yrotation
        JOINT FootLeft
        {
          OFFSET -3.517260 -5.187723 -10.489368
          CHANNELS 3 Zrotation Xrotation Yrotation
          End Site
          {
            OFFSET 0 0 0
          }
        }
      }
    }
  }
  JOINT HipRight
  {
    OFFSET 5.439853 1.955582 -8.565761
    CHANNELS 3 Zrotation Xrotation Yrotation
    JOINT KneeRight
    {
      OFFSET 6.313467 -36.350396 0.155728
      CHANNELS 3 Zrotation Xrotation Yrotation
      JOINT AnkleRight
      {
        OFFSET 6.509433 -40.860891 10.842350
        CHANNELS 3 Zrotation Xrotation Yrotation
        JOINT FootRight
        {
          OFFSET -5.212162 -6.532463 -5.807188
          CHANNELS 3 Zrotation Xrotation Yrotation
          End Site
          {
            OFFSET 0 0 0
          }
        }
      }
    }
  }
}
MOTION
Frames: 10
Frame Time: 0.033333
11.296598 83.750010 259.802919 7.082017 1.230800 1.648221 -0.590716 0.041574 -1.471060 -0.495652 -0.111590 0.245505 -14.720768 -3.203165 -1.965045 0.000000 0.000000 0.000000 -25.572050 11.540195 -4.299180 26.877023 -1.920537 7.659917 5.635729 19.123463 -0.121143 -21.101239 -11.083680 -3.143488 0.000000 0.000000 0.000000 0.000000 0.000000 0.000000 -6.545446 -16.422230 -4.930582 12.927353 15.725592 -0.510514 -20.838649 3.953991 0.967635 9.375881 15.633752 0.667668 0.000000 0.000000 0.000000 0.000000 0.000000 0.000000 -7.924014 9.760547 -0.950635 -8.032919 -17.395696 -7.267340 12.690041 18.014943 -12.186344 0.000000 0.000000 0.000000 -1.552740 -1.030146 -1.637611 9.454190 -4.127527 3.765610 0.242492 34.353428 -37.843003 0.000000 0.000000 0.000000
10.846686 83.763587 259.442645 7.141160 1.457639 0.863207 -0.626598 0.019487 -0.697528 -0.506471 -0.125496 0.247323 -15.147974 -3.639206 -2.157952 0.000000 0.000000 0.000000 -20.494151 10.930511 -3.698988 23.014827 -1.644069 6.151359 -2.267683 21.269602 0.072137 -10.773932 -15.034949 -0.692564 0.000000 0.000000 0.000000 0.000000 0.000000 0.000000 -6.552697 -17.028624 -5.072607 13.187205 15.496954 -0.493613 -21.361636 4.639595 1.136772 9.301899 13.807282 0.741711 0.000000 0.000000 0.000000 0.000000 0.000000 0.000000 -7.939338 10.014454 -0.108798 -8.136312 -18.554896 -7.674212 12.801148 18.696672 -12.781513 0.000000 0.000000 0.000000 -1.292934 -1.570036 -0.886663 9.212057 -3.945008 3.769443 2.526872 29.513662 -38.189178 0.000000 0.000000 0.000000
10.333616 83.754458 259.180747 7.084179 1.640070 0.385120 -0.675175 0.003988 -0.232423 -0.522013 -0.140464 0.242800 -15.200449 -4.073501 -2.330978 0.000000 0.000000 0.000000 -16.579449 10.349832 -3.196730 20.784227 -0.748424 4.948901 -3.899270 18.613202 0.086650 -9.428032 -14.643265 -0.316567 0.000000 0.000000 0.000000 0.000000 0.000000 0.000000 -6.506585 -17.664451 -5.220366 13.490453 15.512090 -0.512310 -21.852217 6.714173 1.354058 10.350368 10.300170 0.867370 0.000000 0.000000 0.000000 0.000000 0.000000 0.000000 -7.757623 10.313732 0.435536 -8.121773 -19.523539 -7.937706 12.785478 19.184598 -13.403905 0.000000 0.000000 0.000000 -0.897924 -1.793841 -0.403224 9.032642 -4.072862 3.804660 3.677725 27.174849 -38.482203 0.000000 0.000000 0.000000
9.815737 83.733794 259.045991 6.937740 1.747724 0.487327 -0.712308 0.007335 -0.345524 -0.533696 -0.152331 0.234691 -15.268348 -4.454418 -2.493800 0.000000 0.000000 0.000000 -12.968586 9.740312 -2.681233 19.116531 0.415090 3.782108 0.506071 11.406057 0.520625 -14.669214 -10.157180 -1.291987 0.000000 0.000000 0.000000 0.000000 0.000000 0.000000 -6.308814 -18.113834 -5.315815 13.586709 15.783169 -0.525846 -22.069775 9.375591 1.527094 10.570661 7.182753 1.203059 0.000000 0.000000 0.000000 0.000000 0.000000 0.000000 -7.322113 10.794411 0.420626 -8.219630 -20.345258 -8.170859 12.641015 19.463711 -13.662866 0.000000 0.000000 0.000000 -0.234240 -1.858917 -0.478589 8.586302 -4.183284 3.824406 4.368373 25.329199 -38.412263 0.000000 0.000000 0.000000
9.305801 83.708519 258.967945 6.799712 1.799745 0.710084 -0.727759 0.022837 -0.575222 -0.541412 -0.156016 0.227746 -15.532347 -4.657262 -2.599360 0.000000 0.000000 0.000000 -10.002219 9.028857 -2.210265 17.687605 1.582096 2.702541 0.848306 5.654328 1.158284 -16.083904 -6.528100 -1.121992 0.000000 0.000000 0.000000 0.000000 0.000000 0.000000 -6.150230 -18.286159 -5.338676 13.641441 15.715655 -0.515230 -21.595380 12.908489 1.719364 10.489267 2.896918 1.578215 0.000000 0.000000 0.000000 0.000000 0.000000 0.000000 -6.873769 11.132102 0.267764 -8.236185 -20.827280 -8.257978 12.401938 19.576423 -13.816002 0.000000 0.000000 0.000000 0.446048 -1.835378 -0.668135 8.246907 -4.382093 3.883023 4.630583 24.238102 -38.354736 0.000000 0.000000 0.000000
8.867266 83.677272 258.970269 6.648812 1.791303 1.124532 -0.746658 0.049498 -0.994246 -0.558328 -0.156821 0.218780 -15.533552 -4.735008 -2.632307 0.000000 0.000000 0.000000 -7.698815 8.501398 -1.817243 16.329372 2.471781 1.840332 1.452429 -0.243849 1.972470 -17.318573 -2.648309 -0.758874 0.000000 0.000000 0.000000 0.000000 0.000000 0.000000 -5.896254 -18.090352 -5.256322 13.623580 15.708024 -0.550655 -20.306575 16.258825 1.723194 9.249884 -1.556658 1.837199 0.000000 0.000000 0.000000 0.000000 0.000000 0.000000 -6.397319 11.326241 -0.098040 -8.222737 -20.892876 -8.201186 12.069849 19.459657 -13.705399 0.000000 0.000000 0.000000 1.076026 -1.690605 -1.044503 7.952980 -4.653373 3.940146 4.425978 23.990487 -38.146018 0.000000 0.000000 0.000000
8.544320 83.645937 259.016750 6.513837 1.770685 1.720755 -0.781150 0.080848 -1.594949 -0.587452 -0.151472 0.208433 -15.341037 -4.803128 -2.643790 0.000000 0.000000 0.000000 -6.100400 8.157627 -1.539214 15.112027 3.039736 1.247922 1.875828 -5.270909 2.693058 -18.859477 0.388097 -0.397861 0.000000 0.000000 0.000000 0.000000 0.000000 0.000000 -5.523986 -17.691611 -5.110985 13.478768 15.756933 -0.592713 -18.670288 18.347608 1.541715 7.031609 -4.112114 1.740858 0.000000 0.000000 0.000000 0.000000 0.000000 0.000000 -5.878547 11.311094 -0.667016 -8.314526 -20.576234 -8.081837 11.738338 19.189447 -13.372561 0.000000 0.000000 0.000000 1.542810 -1.516553 -1.606770 7.816456 -4.916315 4.003830 3.775493 24.576202 -37.870021 0.000000 0.000000 0.000000
8.363683 83.628185 259.078051 6.440327 1.764042 2.261328 -0.820215 0.113451 -2.139631 -0.620727 -0.140341 0.200136 -15.066115 -4.909755 -2.662051 0.000000 0.000000 0.000000 -5.284833 7.740354 -1.380346 13.604451 3.286890 0.877150 1.563772 -7.826920 2.818817 -17.654597 1.103927 -0.221202 0.000000 0.000000 0.000000 0.000000 0.000000 0.000000 -5.091543 -17.100504 -4.909413 13.267366 15.943988 -0.681431 -17.319116 19.396987 1.286357 4.332374 -5.432830 1.401867 0.000000 0.000000 0.000000 0.000000 0.000000 0.000000 -5.487918 11.228391 -1.194342 -8.403380 -20.197962 -7.955047 10.608639 21.044385 -12.402260 0.000000 0.000000 0.000000 1.771453 -1.361178 -2.122280 7.859205 -5.192857 4.068249 1.730947 28.831368 -37.808635 0.000000 0.000000 0.000000
8.371192 83.631605 259.128164 6.491934 1.784095 2.745043 -0.849515 0.143428 -2.625530 -0.650903 -0.129147 0.198118 -14.963827 -4.909186 -2.639908 0.000000 0.000000 0.000000 -5.705576 7.446592 -1.438521 12.237519 3.055418 0.906929 0.560268 -7.007047 2.264497 -14.855221 -1.079760 -0.490147 0.000000 0.000000 0.000000 0.000000 0.000000 0.000000 -4.717614 -16.326194 -4.666209 12.963652 15.993168 -0.763005 -16.075218 19.735794 1.027768 3.828373 -6.726579 1.333672 0.000000 0.000000 0.000000 0.000000 0.000000 0.000000 -5.289684 10.902160 -1.693537 -8.619943 -19.557398 -7.835396 11.343528 17.998764 -12.336667 0.000000 0.000000 0.000000 1.455012 -1.322058 -2.609085 8.500800 -5.428006 4.186707 0.468130 30.186077 -37.344885 0.000000 0.000000 0.000000
8.407507 83.638155 259.183203 6.318426 1.846515 3.594742 -0.885887 0.178782 -3.484422 -0.668005 -0.119075 0.187475 -13.936739 -4.993841 -2.559237 0.000000 0.000000 0.000000 -5.219830 6.904995 -1.340515 10.589980 3.146787 0.674515 -0.084857 -7.236410 1.959737 -11.986793 0.352176 0.055119 0.000000 0.000000 0.000000 0.000000 0.000000 0.000000 -4.060528 -15.487694 -4.379333 12.515318 16.189640 -0.846349 -15.569226 19.199502 0.832708 2.742947 -5.628729 1.146201 0.000000 0.000000 0.000000 0.000000 0.000000 0.000000 -4.946642 10.589133 -2.577368 -8.656437 -18.954644 -7.658121 11.734202 15.304417 -11.800323 0.000000 0.000000 0.000000 1.596291 -1.432990 -3.453316 8.516104 -5.424686 4.188140 1.290115 26.741090 -36.534202 0.000000 0.000000 0.000000
